# Blender v2.77 (sub 0) OBJ File: ''
# www.blender.org
o Cube
v 1.000000 -2.000000 -1.000000
v 0.990661 -2.000000 0.970000
v -0.990661 -2.000000 0.970000
v -1.000000 -2.000000 -1.000000
v 1.000000 2.000000 -0.999999
v 0.990660 2.000000 0.970001
v -0.990662 2.000000 0.970000
v -1.000000 2.000000 -1.000000
v 0.990553 -2.000000 0.900000
v -0.990553 -2.000000 0.900000
v 0.990553 2.000000 0.900001
v -0.990553 2.000000 0.900000
v -1.000000 -2.000000 0.890000
v -1.000000 2.000000 0.890000
v 1.000000 -2.000000 0.890000
v 1.000000 2.000000 0.890001
v 1.000000 -2.000000 0.910000
v 1.000000 2.000000 0.910001
v -1.000000 -2.000000 0.910000
v -1.000000 2.000000 0.910000
v 0.000000 -2.000000 1.000000
v -0.000001 2.000000 1.000000
v 1.000000 -2.000000 0.960000
v 1.000000 2.000000 0.960001
v -1.000000 -2.000000 0.960000
v -1.000000 2.000000 0.960000
v -0.495331 -2.000000 0.993346
v -0.495331 2.000000 0.993346
v 0.495331 -2.000000 0.993346
v 0.495330 2.000000 0.993347
v -0.884376 0.231233 1.036704
v -0.884376 0.278879 1.036704
v -0.884376 0.231233 0.876832
v -0.884376 0.278879 0.876832
v -0.530450 0.231233 1.036704
v -0.530450 0.278879 1.036704
v -0.530450 0.231233 0.876832
v -0.530450 0.278879 0.876832
vn 0.0000 -1.0000 0.0000
vn 0.0000 1.0000 0.0000
vn 0.7309 -0.0000 0.6825
vn -0.0471 0.0000 0.9989
vn -1.0000 -0.0000 -0.0000
vn 0.0000 0.0000 -1.0000
vn -0.7269 -0.0000 -0.6867
vn 0.7269 -0.0000 0.6867
vn 1.0000 -0.0000 0.0000
vn -0.7269 -0.0000 0.6867
vn 0.7269 0.0000 -0.6867
vn 0.0134 -0.0000 0.9999
vn -0.7309 -0.0000 0.6825
vn -0.0134 -0.0000 0.9999
vn 0.0471 -0.0000 0.9989
vn 0.0000 0.0000 1.0000
s off
f 29//1 21//1 23//1
f 26//2 22//2 24//2
f 24//3 2//3 23//3
f 27//4 7//4 3//4
f 13//5 8//5 4//5
f 1//6 8//6 5//6
f 20//7 10//7 19//7
f 16//8 9//8 15//8
f 14//2 11//2 16//2
f 9//1 13//1 15//1
f 1//1 13//1 4//1
f 5//2 14//2 16//2
f 5//9 15//9 1//9
f 12//10 13//10 10//10
f 26//5 19//5 25//5
f 11//11 17//11 9//11
f 12//2 18//2 11//2
f 17//1 10//1 9//1
f 30//12 21//12 29//12
f 7//13 25//13 3//13
f 18//9 23//9 17//9
f 20//2 24//2 18//2
f 23//1 19//1 17//1
f 22//14 27//14 21//14
f 6//15 29//15 2//15
f 34//5 31//5 32//5
f 38//6 33//6 34//6
f 36//9 37//9 38//9
f 32//16 35//16 36//16
f 33//1 35//1 31//1
f 38//2 32//2 36//2
f 25//1 23//1 21//1
f 2//1 29//1 23//1
f 21//1 27//1 25//1
f 3//1 25//1 27//1
f 6//2 24//2 30//2
f 26//2 7//2 28//2
f 28//2 22//2 26//2
f 30//2 24//2 22//2
f 24//3 6//3 2//3
f 27//4 28//4 7//4
f 13//5 14//5 8//5
f 1//6 4//6 8//6
f 20//7 12//7 10//7
f 16//8 11//8 9//8
f 14//2 12//2 11//2
f 9//1 10//1 13//1
f 1//1 15//1 13//1
f 5//2 8//2 14//2
f 5//9 16//9 15//9
f 12//10 14//10 13//10
f 26//5 20//5 19//5
f 11//11 18//11 17//11
f 12//2 20//2 18//2
f 17//1 19//1 10//1
f 30//12 22//12 21//12
f 7//13 26//13 25//13
f 18//9 24//9 23//9
f 20//2 26//2 24//2
f 23//1 25//1 19//1
f 22//14 28//14 27//14
f 6//15 30//15 29//15
f 34//5 33//5 31//5
f 38//6 37//6 33//6
f 36//9 35//9 37//9
f 32//16 31//16 35//16
f 33//1 37//1 35//1
f 38//2 34//2 32//2
